/* XPM */
static char *abc5a3710275418399cd5aad97e8c66b[] = {
/* columns rows colors chars-per-pixel */
"32 32 249 2 ",
"   c #000101",
".  c #000202",
"X  c #010202",
"o  c #010303",
"O  c #010404",
"+  c #010505",
"@  c #020404",
"#  c #020505",
"$  c #020606",
"%  c #020707",
"&  c #030707",
"*  c #040506",
"=  c #010804",
"-  c #020B06",
";  c #070A04",
":  c #010C05",
">  c #020D05",
",  c #020E06",
"<  c #090D06",
"1  c #0C0E04",
"2  c #020808",
"3  c #030808",
"4  c #030909",
"5  c #04080B",
"6  c #040A0A",
"7  c #070A0A",
"8  c #040B0C",
"9  c #040A0D",
"0  c #050A0D",
"q  c #050B0D",
"w  c #040B0E",
"e  c #050B0F",
"r  c #0A0B0B",
"t  c #011104",
"y  c #011205",
"u  c #021006",
"i  c #021605",
"p  c #0D1006",
"a  c #02150B",
"s  c #01160A",
"d  c #021A0B",
"f  c #02190C",
"g  c #101405",
"h  c #111405",
"j  c #1D1E04",
"k  c #1E1E04",
"l  c #050C10",
"z  c #060C10",
"x  c #060D10",
"c  c #070F14",
"v  c #060E15",
"b  c #070E15",
"n  c #08141B",
"m  c #09121C",
"M  c #09131D",
"N  c #141919",
"B  c #171818",
"V  c #01200B",
"C  c #01240B",
"Z  c #02230D",
"A  c #01280C",
"S  c #01290D",
"D  c #012A0E",
"F  c #012C0C",
"G  c #013711",
"H  c #013712",
"J  c #013F13",
"K  c #013F14",
"L  c #2C2C03",
"P  c #2F2F03",
"I  c #2C2D04",
"U  c #2E2E04",
"Y  c #2F3004",
"T  c #323103",
"R  c #323204",
"E  c #323404",
"W  c #0D1A27",
"Q  c #0E1D2C",
"!  c #0E1D2D",
"~  c #0E1D2E",
"^  c #0E1E2F",
"/  c #0F2234",
"(  c #0F2235",
")  c #102133",
"_  c #102236",
"`  c #102336",
"'  c #102237",
"]  c #102337",
"[  c #1C2936",
"{  c #1D2A39",
"}  c #353636",
"|  c #393A3A",
" . c #004F15",
".. c #015216",
"X. c #0F611B",
"o. c #0E641E",
"O. c #096D1F",
"+. c #0B721D",
"@. c #0A7C22",
"#. c #0A7E22",
"$. c #152942",
"%. c #152A43",
"&. c #152B45",
"*. c #152B46",
"=. c #162D49",
"-. c #162F4A",
";. c #172F4C",
":. c #172F4D",
">. c #1B3556",
",. c #1B3557",
"<. c #1A3657",
"1. c #1B3558",
"2. c #1A3658",
"3. c #1B3658",
"4. c #1A3758",
"5. c #1A3659",
"6. c #1B3659",
"7. c #1B3759",
"8. c #1C375A",
"9. c #1C375B",
"0. c #1B385A",
"q. c #1C385B",
"w. c #1E3A5C",
"e. c #1F3B5D",
"r. c #1F3C5F",
"t. c #213C5F",
"y. c #203D5F",
"u. c #213D5F",
"i. c #223D5F",
"p. c #223E5F",
"a. c #233E5F",
"s. c #203E60",
"d. c #213E60",
"f. c #233E60",
"g. c #223E61",
"h. c #223F61",
"j. c #233F62",
"k. c #243F60",
"l. c #243F61",
"z. c #253F61",
"x. c #3B4B5D",
"c. c #3A4B5E",
"v. c #244061",
"b. c #254061",
"n. c #264161",
"m. c #254062",
"M. c #244063",
"N. c #264162",
"B. c #274162",
"V. c #264163",
"C. c #264262",
"Z. c #274263",
"A. c #284262",
"S. c #284263",
"D. c #294263",
"F. c #284464",
"G. c #2B4464",
"H. c #2B4565",
"J. c #2C4565",
"K. c #4A4C4C",
"L. c #535454",
"P. c gray34",
"I. c #585858",
"U. c #5B5D5D",
"Y. c #445A75",
"T. c #455B77",
"R. c #475C76",
"E. c #485E79",
"W. c #5D6265",
"Q. c #4A607B",
"!. c #50647C",
"~. c #616464",
"^. c #666767",
"/. c #61656A",
"(. c #6A6B6B",
"). c #6D6F6F",
"_. c #6F7171",
"`. c #757676",
"'. c #797A7A",
"]. c #008523",
"[. c #008623",
"{. c #0A8022",
"}. c #0A8323",
"|. c #0B8724",
" X c #0B8A24",
".X c #0B8C28",
"XX c #0B9129",
"oX c #0B9229",
"OX c #0B9529",
"+X c #0B972A",
"@X c #0C9729",
"#X c #0C982A",
"$X c #0C9D2B",
"%X c #0CA52F",
"&X c #0CA730",
"*X c #0DAA30",
"=X c #928D0B",
"-X c #95900B",
";X c #9A940B",
":X c #9B950B",
">X c #A7A00C",
",X c #ACA50C",
"<X c #ADA60C",
"1X c #B5AE0C",
"2X c #CCC30C",
"3X c #CDC30C",
"4X c #D7CD0D",
"5X c #566A85",
"6X c #576B86",
"7X c #78889D",
"8X c #7C8CA0",
"9X c #7E8EA2",
"0X c #808181",
"qX c #818282",
"wX c #8E9090",
"eX c #959797",
"rX c gray60",
"tX c #9B9B9B",
"yX c #8090A3",
"uX c #8190A3",
"iX c #92A0B1",
"pX c #93A1B1",
"aX c #97A4B4",
"sX c #99A6B6",
"dX c #A8A9A9",
"fX c #A2AEBD",
"gX c gray69",
"hX c #B0B2B2",
"jX c #B6BABD",
"kX c gray73",
"lX c #B9BBBF",
"zX c #C3C4C4",
"xX c gray78",
"cX c #C2CAD4",
"vX c #C6CDD6",
"bX c #D7DCE2",
"nX c #DBDFE5",
"mX c #E3E6EB",
"MX c #E4E8EC",
"NX c #EBEDF0",
"BX c #EBEEF1",
"VX c #EEF0F3",
"CX c gray94",
"ZX c gray96",
"AX c gray97",
"SX c #FDFDFE",
"DX c #FEFEFE",
"FX c gray100",
"GX c None",
/* pixels */
"GXGXGXGXGXGXGXGXGXGXGXGXb.D.b.p.p.b.G.d.GXGXGXGXGXGXGXGXGXGXGXGX",
"GXGXGXGXGXGXGXGXGXl.r.Y.pXcXbXNXNXbXcXiXY.t.a.GXGXGXGXGXGXGXGXGX",
"GXGXGXGXGXGXGXp.l.9XBXSXSXZXkXrX'.^.(.`.tXlX7Xa.p.GXGXGXGXGXGXGX",
"GXGXGXGXGXGXb.5XMXSXSXgXL.r . . . . . . . . B /.R.b.GXGXGXGXGXGX",
"GXGXGXGXGXl.yXSXSXxX| . . . . . . . . . . . . . * c.a.GXGXGXGXGX",
"GXGXGXGXl.fXSXSXqXX . . . . . . . . . . . . . . . . { t.GXGXGXGX",
"GXGXGXb.yXSXAXI.X X X X . . . . . . X X X X X X . . . _ 8.GXGXGX",
"GXGXb.6XSXSXP.@ X X X X X X . . . . X X X X X X . . . . &.8.GXGX",
"GXGXb.MXSX0X@ @ . @ . @ @ . @ . . @ . @ . @ . @ X X . @ e q.GXGX",
"GXD.9XSXzX@ @ . @ . @ . . @ . @ @ . @ . @ . @ . . * @ . . _ 8.GX",
"GXd.VXSX} . @ . @ . . @ . . . . . @ . @ . @ . @ . . . . . 5 q.GX",
"GXQ.SXdX@ @ @ @ @ @ @ @ @ @ $ @ @ @ @ @ @ @ @ @ $ @ $ @ . $ :.GX",
"b.aXSXK.$ @ @ @ = A t @ @ P 1 @ @ C s @ @ ; T 1 @ @ @ @ $ . ^ 8.",
"J.vXCX7 @ @ @ @ #.#.@X@ @ ,XL @  .oX%XV @ ;X,X>X@ @ @ @ . $ m >.",
"b.nXhX$ $ @ $ @ %XS {.: $ ,XL $ [.J O.G j 4Xg 1X$ @ $ @ $ @ b <.",
"d.VXwX$ @ $ @ $ o..Xy $ @ ,XL $ #XG @ $ E 2X@ $ @ $ @ $ @ $ e q.",
"p.BX_.@ $ @ $ $ : }.+.$ $ ,XL @ @XG $ $ E 3X$ $ $ @ @ $ @ $ e 8.",
"D.nXU.$ @ $ @ $  Xd *Xs $ ,XI $ [.J X.A k 4Xh =X@ $ $ @ $ @ b <.",
"J.vX~.$ $ $ $ $  X[.@X2 $ ,XP $ ..oX$Xd $ ;X,X-X$ $ $ $ @ $ m <.",
"F.aX).$ $ $ $ $ : S : $ $ P p $ $ Z i $ $ < U < $ $ $ @ $ $ ~ 1.",
"GXQ.eX$ $ $ $ $ $ $ $ $ $ $ $ $ $ $ $ $ $ $ $ $ $ $ $ $ @ $ =.GX",
"GXd.jX2 $ 2 2 $ 2 $ $ 2 2 $ $ 2 2 $ 2 $ 2 $ $ 2 $ $ $ $ $ e q.GX",
"GXb.uXN 2 $ 2 $ 2 $ 2 $ $ 2 $ 2 $ 2 $ 2 $ 2 $ $ $ $ $ $ $ _ 1.GX",
"GXGXM.W.$ 2 $ 2 $ 2 $ 2 2 $ 2 2 2 $ 2 $ 2 $ 2 $ $ $ $ $ l 0.GXGX",
"GXGXG.!.2 2 2 2 2 2 2 2 2 2 2 2 2 2 2 2 2 2 $ 2 $ 2 $ 2 &.0.GXGX",
"GXGXGXF.x.2 2 2 2 2 2 2 2 2 2 2 2 2 2 2 2 $ 2 $ 2 $ 2 / 1.GXGXGX",
"GXGXGXGXd.[ 2 7 2 7 7 & 2 2 7 2 7 2 2 $ 2 * $ 2 $ $ W 0.GXGXGXGX",
"GXGXGXGXGXe.) 2 2 2 2 2 2 2 2 2 2 2 2 2 7 2 2 7 7 / 1.GXGXGXGXGX",
"GXGXGXGXGXGX1.%.q 7 2 2 2 2 2 2 2 7 2 2 7 2 2 q %.1.GXGXGXGXGXGX",
"GXGXGXGXGXGXGX<.1._ e 2 2 7 2 2 & & 2 2 2 q / 0.1.GXGXGXGXGXGXGX",
"GXGXGXGXGXGXGXGXGX<.0.=.Q n b 7 e c n ~ -.q.1.GXGXGXGXGXGXGXGXGX",
"GXGXGXGXGXGXGXGXGXGXGXGX<.<.<.8.8.<.<.<.GXGXGXGXGXGXGXGXGXGXGXGX"
};
