/* XPM */
static char *ebf87aae86d74b7ffe437e5fd5027037[] = {
/* columns rows colors chars-per-pixel */
"64 64 256 2 ",
"   c #010404",
".  c #030A06",
"X  c #0A0D05",
"o  c #020609",
"O  c #030809",
"+  c #0B0C0C",
"@  c #011307",
"#  c #0E1005",
"$  c #011409",
"%  c #021A0A",
"&  c #141504",
"*  c #1B1402",
"=  c #151904",
"-  c #1B1C05",
";  c #060D12",
":  c #0C0E10",
">  c #071116",
",  c #0C1214",
"<  c #09141D",
"1  c #121413",
"2  c #14191A",
"3  c #1C1D1D",
"4  c #151917",
"5  c #02220C",
"6  c #022A0E",
"7  c #082E0F",
"8  c #1E2005",
"9  c #04330F",
"0  c #06380F",
"q  c #022E10",
"w  c #1E211F",
"e  c #033211",
"r  c #043C12",
"t  c #093F12",
"y  c #242506",
"u  c #2C2D06",
"i  c #343407",
"p  c #3C3C07",
"a  c #363508",
"s  c #0B1622",
"d  c #0C1926",
"f  c #0D1C2A",
"g  c #181F26",
"h  c #0F1F31",
"j  c #1C2222",
"k  c #17222A",
"l  c #0F2032",
"z  c #102236",
"x  c #12253B",
"c  c #13283F",
"v  c #1A2A3B",
"b  c #212222",
"n  c #272A29",
"m  c #2D2D2D",
"M  c #282826",
"N  c #33312E",
"B  c #222C36",
"V  c #293237",
"C  c #333433",
"Z  c #3B3D3D",
"A  c #393836",
"S  c #403F05",
"D  c #044514",
"F  c #044B15",
"G  c #034E18",
"H  c #075317",
"J  c #035419",
"K  c #045B1A",
"L  c #0A5D1B",
"P  c #06611C",
"I  c #09651D",
"U  c #036D1E",
"Y  c #0A6B1D",
"T  c #08721E",
"R  c #076D20",
"E  c #096F20",
"W  c #047421",
"Q  c #097621",
"!  c #027C21",
"~  c #0A7B22",
"^  c #414107",
"/  c #4D4A06",
"(  c #4A4807",
")  c #514E07",
"_  c #565406",
"`  c #5C5906",
"'  c #555309",
"]  c #5E5C09",
"[  c #595708",
"{  c #615D06",
"}  c #696606",
"|  c #6B6906",
" . c #6E6C09",
".. c #666409",
"X. c #726E09",
"o. c #7F7B0A",
"O. c #06254C",
"+. c #0B2A4F",
"@. c #152B45",
"#. c #162E4A",
"$. c #1F2F40",
"%. c #16304F",
"&. c #0D2B51",
"*. c #112E52",
"=. c #133155",
"-. c #193454",
";. c #163559",
":. c #1A3759",
">. c #1C3A5E",
",. c #202F41",
"<. c #21364F",
"1. c #383E40",
"2. c #213C5D",
"3. c #213751",
"4. c #1D3C62",
"5. c #213E61",
"6. c #3E4141",
"7. c #2F4154",
"8. c #2B425E",
"9. c #334559",
"0. c #274162",
"q. c #2A4565",
"w. c #2D4769",
"e. c #2E4969",
"r. c #344B65",
"t. c #324C6B",
"y. c #3A516B",
"u. c #344E71",
"i. c #375272",
"p. c #3A5372",
"a. c #3D587A",
"s. c #424444",
"d. c #41494F",
"f. c #4A4B4A",
"g. c #454847",
"h. c #4D5358",
"j. c #535453",
"k. c #5A5C5B",
"l. c #575857",
"z. c #495562",
"x. c #525C68",
"c. c #425975",
"v. c #435B79",
"b. c #495F7B",
"n. c #5F6261",
"m. c #4B627E",
"M. c #47607E",
"N. c #54667A",
"B. c #59697B",
"V. c #636464",
"C. c #6B6B6B",
"Z. c #706F6E",
"A. c #737373",
"S. c #7D7E7E",
"D. c #787877",
"F. c #817D0A",
"G. c #058023",
"H. c #0B8325",
"J. c #078826",
"K. c #0B8A26",
"L. c #0B8D28",
"P. c #0B932A",
"I. c #0C9B2B",
"U. c #099026",
"Y. c #0CA830",
"T. c #86820A",
"R. c #88830B",
"E. c #8E880B",
"W. c #928C0B",
"Q. c #9A940A",
"!. c #9F990B",
"~. c #A39C0B",
"^. c #AA9F0A",
"/. c #A6A00C",
"(. c #ADA40B",
"). c #B2AB0B",
"_. c #B9AE0A",
"`. c #BAB20C",
"'. c #4D6582",
"]. c #536782",
"[. c #546A86",
"{. c #5C6F84",
"}. c #576D89",
"|. c #596E8A",
" X c #5B718C",
".X c #62758E",
"XX c #66798F",
"oX c #6A7D95",
"OX c #637993",
"+X c #7A838D",
"@X c #6E8199",
"#X c #74869B",
"$X c #76879C",
"%X c #7B8BA1",
"&X c #838381",
"*X c #8B8D8D",
"=X c #888D92",
"-X c #8D9195",
";X c #8E949B",
":X c #929292",
">X c #9B9B9A",
",X c #989897",
"<X c #A09F9E",
"1X c #8292A6",
"2X c #8B9AAD",
"3X c #8997A8",
"4X c #959EA7",
"5X c #8E9EB1",
"6X c #99A0AA",
"7X c #94A2B4",
"8X c #9AA6B4",
"9X c #9CAABC",
"0X c #9FA9B5",
"qX c #AEAEAD",
"wX c #A5A5A4",
"eX c #A4AEBC",
"rX c #A5B0BF",
"tX c #B2B2B1",
"yX c #BCBBBA",
"uX c #BFC0BF",
"iX c #A6B2C2",
"pX c #ABB6C4",
"aX c #AEBAC8",
"sX c #B7BDC3",
"dX c #B3BDCA",
"fX c #B8C2CE",
"gX c #BDC5D2",
"hX c #BFC8D3",
"jX c #C3C2C2",
"kX c #CAC8C7",
"lX c #CBCCCB",
"zX c #C1C5CB",
"xX c #C2CBD6",
"cX c #C5CEDA",
"vX c #C9CCD0",
"bX c #C7D1DD",
"nX c #D3D4D5",
"mX c #DCDCDC",
"MX c #CED7E1",
"NX c #D3DAE4",
"BX c #DEE4EB",
"VX c #DFE0E0",
"CX c #E5E5E5",
"ZX c #E9E8E7",
"AX c #E2E8EF",
"SX c #EBECED",
"DX c #E3E6E9",
"FX c #F0EFED",
"GX c #EAEDF2",
"HX c #E5EAF0",
"JX c #EFF2F6",
"KX c #F4F5F5",
"LX c #F6F8FB",
"PX c #FEFEFE",
"IX c #F5F7F9",
"UX c None",
/* pixels */
"UXUXUXUXUXUXUXUXUXUXUXUXUXUXUXUXUXUXUXUXUXUXUXUX+.&.*.&.&.+.O.O.O.O.+.*.*.*.&.O.UXUXUXUXUXUXUXUXUXUXUXUXUXUXUXUXUXUXUXUXUXUXUXUX",
"UXUXUXUXUXUXUXUXUXUXUXUXUXUXUXUXUXUXUXUXUXUXUX5.u.c.b.N.].[.}.}.}.|. X X|.}.'.v.t.UXUXUXUXUXUXUXUXUXUXUXUXUXUXUXUXUXUXUXUXUXUXUX",
"UXUXUXUXUXUXUXUXUXUXUXUXUXUXUXUXUXUXUX=.&.*.5.c.XX1X7XeXiXdXfXzXzXfXfXaXiXeX5XoX].q.;.*.=.UXUXUXUXUXUXUXUXUXUXUXUXUXUXUXUXUXUXUX",
"UXUXUXUXUXUXUXUXUXUXUXUXUXUXUXUXUXUX0.p.m.|.@X2XpXMXAXGXGXGXSXFXZXVXnXvXzXsXeX2XoX.X}.].'.a.UXUXUXUXUXUXUXUXUXUXUXUXUXUXUXUXUXUX",
"UXUXUXUXUXUXUXUXUXUXUXUXUXUXUX+.&.5.v.$XiXbXNXDXJXPXPXLXZXnXkXuXtXwX,X,X:X:X-X-X,X6X0X7X%X[.t.-.=.UXUXUXUXUXUXUXUXUXUXUXUXUXUXUX",
"UXUXUXUXUXUXUXUXUXUXUXUXUXUX:.q.p.OX5XxXKXPXPXLXZXmXkXtX,X&XA.V.l.j.f.g.f.f.j.k.Z.&X:X-XoX{.c.r.t.u.UXUXUXUXUXUXUXUXUXUXUXUXUXUX",
"UXUXUXUXUXUXUXUXUXUXUXUXUX:.e.{.7XcXBXLXPXPXFXkX>XD.l.Z N M b 3 4 1 + 1 1 1 3 3 M N A A A f.x.B.v.p.w.UXUXUXUXUXUXUXUXUXUXUXUXUX",
"UXUXUXUXUXUXUXUXUXUXUXUX0.a.oXrXAXPXPXLXCXjX,XC.f.b +                                     3 6.h.z.r.e.e.UXUXUXUXUXUXUXUXUXUXUXUX",
"UXUXUXUXUXUXUXUXUXUX&.2.m.1XgXGXPXPXIXlX*Xk.C 3 +                                           1 3 g B 9.y.w.5.UXUXUXUXUXUXUXUXUXUX",
"UXUXUXUXUXUXUXUXUX;.e.[.2XcXLXPXIXmXtXD.6.+                                                       : B 7.8.2.5.UXUXUXUXUXUXUXUXUX",
"UXUXUXUXUXUXUXUX&.e. X9XNXLXPXPXlX*Xf.3 +                                                           + g ,.3.2.4.UXUXUXUXUXUXUXUX",
"UXUXUXUXUXUXUXUX5.[.9XBXPXPXFXjXS.Z +                                                                   < v <.:.UXUXUXUXUXUXUXUX",
"UXUXUXUXUXUXUX0.b.2XNXPXPXFXqXC.m X                                                                       < z #.-.UXUXUXUXUXUXUX",
"UXUXUXUXUXUX:.c.1XcXLXPXSXtXn.w                                                                             < z %.;.UXUXUXUXUXUX",
"UXUXUXUXUX:.e.oXgXKXPXFXqXV.b                                                                                 s @.-.>.UXUXUXUXUX",
"UXUXUXUX&.e. XiXGXPXIXjXV.3                                                                                   O d @.-.4.UXUXUXUX",
"UXUXUXUX&.v.7XAXPXPXkXS.m                                                                                       O h %.4.UXUXUXUX",
"UXUXUXUX2.OXbXPXPXmX*XZ +                                                                                         s @.;.UXUXUXUX",
"UXUXUXq.b.5XAXPXIXqXf.+                                                                                           ; h #.-.UXUXUX",
"UXUX-.p.%XxXLXPXlXZ.3                                                                                               s z -.4.UXUX",
"UXUX*.m.pXJXPXCX*XA                                                                                                 o f #.>.UXUX",
"UXUX=. XbXPXPXfXl.+                                                                                                   s #.>.UXUX",
"UXUX8.@XmXPXCX:XC                                                                                                     ; @.:.UXUX",
"UX0.b.5XAXPXjXV.4                                                                                                     ; h #.:.UX",
"&.y.oXfXLXZX>X6.+                   @ % @         X & = #           @ @ .               * * X                         O f x =.4.",
"&.v.3XMXPXnXA.w                 @ 6 D D t 5 @     * S ( u #     @ % r F D e $       = p _ ` ^ y X         .           o < h #.4.",
"=.m.7XHXPXjXj.                $ D I T Q ~ K %     u X.o./ &   . 5 D U K.L.R e .   * ) F.Q.!.W.] -                       > f @.4.",
"*.].rXGXKXqXZ                 6 T U.Q ~ I.~ 9     i E.!.{ *   $ D U G.I.Y.J.G $   i R.(.~./.`.W.i                       ; d @.>.",
"*.[.pXGXVX:Xm                 e H.U.L L ~ Q 9     i E.~.` *   % K ! R R H.~ G % @ / ^.). ...^.Q.p       .               o d @.4.",
"+.[.fXZXlXS.M                 e ~ U.I D H F %     i T.Q.` *   6 U ! J r D G r % = ] _.~.^ y .. .u   o       o           o d @.4.",
"O.}.gXSXuXC.j                 5 L H.~ L 0 %       i T.Q.` *   6 W J.K 6 $ $ $ $ - } _.~.p o - y #         o             o s @.4.",
"O.{.xXZXyXn.w                 . 7 I L.H.D @       i T.Q.` *   6 Q L.K 5         y | ).~.p       o   o       . O         o s #.4.",
"O.|.xXDXwXl.4         X         o t Q K.Y 0 $     a F.Q.` *   6 W L.K 5         - | ).~.S   o           O       X         s @.5.",
"O.|.xXmX<Xg.1         o   o   O % 0 H Q K.Y 5     a R.Q.` *   6 W J.K 6 $ $ .   - } `.~.p   & - X o   o     O       X     s @.5.",
"&. XgXnX:Xs.1           o     % F H r H K.H.r o   i F.!.` *   6 W ! J r D t 6 % & { _.^.^ - ) [ y       O               o d @.4.",
"*. XdXlX*X1.+                 7 Q H.J K P.P.D o   i E.!.{ *   5 K ! U I Q Y D $ + ) ^.).| ] R.F.i   o       O   o       ; d @.4.",
"%. XaXzX*Xs.1                 7 Q U.~ G.I.H.r     i E.!.] -   % D U G.P.I.H.D O   i F.).~.Q.^.o.u o   o   o   O       o ; d @.4.",
"=.|.eXsX=Xg.4           o     % F T ! ! ! L 5     u X.F./ =   . 6 G E K.K.Y 7 o o - ' R.Q.Q.T.' - o o                 o > f @.4.",
"*.[.7XeX*Xf.4     o O   o     $ 5 r D F r 5 $     - S ( u # o   . 5 r F F 9 $ o     8 p ' _ p y +     o     . o       o < h #.4.",
"*.M.#X4X=Xl.3         .   o   o   . @ % .         X * - # +       . $ @ .       o   o X = = +       o   o             ; d @.%.4.",
"UXu.].#X;XC.M           O           o         o   . .   O .   o     o           o   o             O   O     .         ; l %.:.UX",
"UXUXt.OX4X+XN             . .         o o   o     o   o     O   o   o     O   o   O o     o o o     O   O             < c -.UXUX",
"UXUX4.|.0X*XA       O O O . o o O o       O   o O   o   o   O O . o   o o   O   O O o   o   O   O O   O   O .         s #.>.UXUX",
"UXUX=.'.8X-XZ       .   O o   O   O O . O   O o O   o O o O O   o o   o O   o .     o o O   O O   O O   O         O + f %.>.UXUX",
"UXUX;.'.1X+XZ O       o O O . o   O O O O O O   O O . O o O O O   O O o . o O O O O   O o .   O O   O   O   X     O < x %.2.UXUX",
"UXUXUXv. X{.d.3 O     .     o O O O     O   O O   O o       .     O   . O     O O   o .   o o .   O   O   O       ; z #.-.UXUXUX",
"UXUXUXUXt.c.x.Z 4     O O O .   O . . o . O   O   O O O O O . o O O O O o   O O O O . o O O   O O   O   O   O     s @.-.UXUXUXUX",
"UXUXUXUX:.y.N.h.3     O O   o O   o o O     O O O O     o . O   O     O . o O     O   O O   O     O   O         ; l =.4.UXUXUXUX",
"UXUXUXUX;.i.N.z.k     .   o . o O O O O O O O o . O O . O . o o o O . O O o O O O O . O O   O   O O O . .     ; d @.-.4.UXUXUXUX",
"UXUXUXUXUXi.v.y.V ,     . O O O O O . o O   O o o O O o O o O O . O o O O . O O . O o O O O O O O       .   . s c %.:.UXUXUXUXUX",
"UXUXUXUXUXUXt.r.9.B ,     O O . .   O   O O O . . O o . . O O O o O O O O   O O o o O O   O   O   . O     . < z %.:.UXUXUXUXUXUX",
"UXUXUXUXUXUXUXe.r.7.k +       o . O O O O O O O o O O o O O O O . O O O O O O O O O   O   . O O . O       < z @.-.UXUXUXUXUXUXUX",
"UXUXUXUXUXUXUXUXq.8.v 2 +     o O O O O O O O o O o O O O O O O o o . o O O       o   O O O   O   O     ; l %.-.UXUXUXUXUXUXUXUX",
"UXUXUXUXUXUXUXUX4.0.3.v < $     O O O O O o . . . O O O O O O O O O O O O o O O O .   O O   O       o > h @.-.>.UXUXUXUXUXUXUXUX",
"UXUXUXUXUXUXUXUXUX0.>.<.z < O     O O O O O . O O O O O O O O O O O O . O X O O O O O O O . .     $ < x #.-.>.UXUXUXUXUXUXUXUXUX",
"UXUXUXUXUXUXUXUXUXUX0.:.%.z s ; O     . O O + O O O O O O O O O O o O o   O O O O O O O   .     : s z @.-.>.UXUXUXUXUXUXUXUXUXUX",
"UXUXUXUXUXUXUXUXUXUXUXUX-.%.x f ; .     . . . O O O O O .   O O O O O O O O O O . o .   .   X ; f c %.;.UXUXUXUXUXUXUXUXUXUXUXUX",
"UXUXUXUXUXUXUXUXUXUXUXUXUX:.%.@.l < > + .         .   O   X O O O   O o   O O     X   . ; > s h c %.;.UXUXUXUXUXUXUXUXUXUXUXUXUX",
"UXUXUXUXUXUXUXUXUXUXUXUXUXUX;.-.%.@.l < O         O .   o O O O O   O O O   X         + < l #.%.-.-.UXUXUXUXUXUXUXUXUXUXUXUXUXUX",
"UXUXUXUXUXUXUXUXUXUXUXUXUXUXUX>.4.:.@.z f d < < ; ; + O O   O     X .   O O ; ; > < s h z #.-.>.5.UXUXUXUXUXUXUXUXUXUXUXUXUXUXUX",
"UXUXUXUXUXUXUXUXUXUXUXUXUXUXUXUXUXUX-.%.%.@.c l d < > : O O O     O O $ + > s d l c #.#.%.-.UXUXUXUXUXUXUXUXUXUXUXUXUXUXUXUXUXUX",
"UXUXUXUXUXUXUXUXUXUXUXUXUXUXUXUXUXUXUX>.>.>.-.%.x h f d d s d s s s s d d f l x #.:.:.>.>.UXUXUXUXUXUXUXUXUXUXUXUXUXUXUXUXUXUXUX",
"UXUXUXUXUXUXUXUXUXUXUXUXUXUXUXUXUXUXUXUXUXUXUX-.%.#.@.@.@.@.@.@.@.#.@.@.@.@.#.%.-.UXUXUXUXUXUXUXUXUXUXUXUXUXUXUXUXUXUXUXUXUXUXUX",
"UXUXUXUXUXUXUXUXUXUXUXUXUXUXUXUXUXUXUXUXUXUXUXUX4.4.4.>.4.4.4.4.4.4.4.4.>.>.4.4.UXUXUXUXUXUXUXUXUXUXUXUXUXUXUXUXUXUXUXUXUXUXUXUX"
};
