/* XPM */
static char *a4d47aa59d9748f48f27cc6a2da799c0[] = {
/* columns rows colors chars-per-pixel */
"16 16 105 2 ",
"   c #000101",
".  c #010202",
"X  c #010303",
"o  c #010404",
"O  c #010505",
"+  c #020405",
"@  c #020505",
"#  c #020606",
"$  c #020707",
"%  c #020808",
"&  c #030808",
"*  c #030909",
"=  c #050A0F",
"-  c #0E0F0F",
";  c #101304",
":  c #111405",
">  c #181B04",
",  c #191B04",
"<  c #060E12",
"1  c #070E13",
"2  c #0E1010",
"3  c #012A0E",
"4  c #012F0C",
"5  c #013211",
"6  c #013312",
"7  c #013213",
"8  c #013413",
"9  c #013C12",
"0  c #2E2E04",
"q  c #343503",
"w  c #303104",
"e  c #3C3C03",
"r  c #0D1B2B",
"t  c #0E1C2B",
"y  c #0D1D2C",
"u  c #1B2025",
"i  c #1B2227",
"p  c #102439",
"a  c #11243A",
"s  c #11253A",
"d  c #12263E",
"f  c #12263F",
"g  c #12283F",
"h  c #353737",
"j  c #373838",
"k  c #403F02",
"l  c #014212",
"z  c #014713",
"x  c #004E14",
"c  c #015015",
"v  c #015115",
"b  c #015418",
"n  c #0F5F1A",
"m  c #0E621B",
"M  c #006C1F",
"N  c #404104",
"B  c #5C5903",
"V  c #5E5C02",
"C  c #5F5C02",
"Z  c #686602",
"A  c #747010",
"S  c #767310",
"D  c #152B47",
"F  c #152C47",
"G  c #152D48",
"H  c #152D4A",
"J  c #152E4A",
"K  c #152F4A",
"L  c #172E4A",
"P  c #263B56",
"I  c #263D58",
"U  c #394D67",
"Y  c #434646",
"T  c #464747",
"R  c #4F5151",
"E  c #545555",
"W  c #5C5F5F",
"Q  c #40556D",
"!  c #41556F",
"~  c #445770",
"^  c #435870",
"/  c #425871",
"(  c #465972",
")  c #465B73",
"_  c #485B73",
"`  c #566472",
"'  c #606162",
"]  c #6C6C6C",
"[  c #64707E",
"{  c #5B6B81",
"}  c #5C6C82",
"|  c #5C6E83",
" . c #5E6F84",
".. c #69798D",
"X. c #6A7A8E",
"o. c #909191",
"O. c #909292",
"+. c #939393",
"@. c #959595",
"#. c #919DAB",
"$. c #929EAC",
"%. c #DEE2E7",
"&. c #E7E7E8",
"*. c #E8E8E9",
"=. c None",
/* pixels */
"=.=.=.=.=.~ } X.X.[ ~ =.=.=.=.=.",
"=.=.=.! #.&.@.E h Y W ` U =.=.=.",
"=.=.( %.O.- X X X X X X u P =.=.",
"=./ %.] X X X X X X X X X = L =.",
"=.$.O.X X X X X X X X X X X r =.",
"( &.2 X X X X X X X X X X X O D ",
"| O.O O x 5 k ; z 9 q Z X O X f ",
"X.R O O M 4 V > m 5 S e O O O a ",
"X.j O O v v V > n 3 S w O O O a ",
"| Y & O b 5 N ; l 8 0 B O O O f ",
"_ W % O % O % % O O & & $ $ & D ",
"=.[ & O % & % & & & & O $ O y =.",
"=.! u & & & & & & & & O $ < L =.",
"=.=.I 1 & & * * & & & % 1 L =.=.",
"=.=.=.L t & % % & & & t L =.=.=.",
"=.=.=.=.=.F g p p D L =.=.=.=.=."
};
